<?xml version="1.0" encoding="UTF-8" standalone="no"?>
<!DOCTYPE svg PUBLIC "-//W3C//DTD SVG 1.1//EN"
 "http://www.w3.org/Graphics/SVG/1.1/DTD/svg11.dtd">
<!-- Generated by graphviz version 2.40.1 (0)
 -->
<!-- Title: pipeline_dag_20230127_202708 Pages: 1 -->
<svg width="921pt" height="230pt"
 viewBox="0.00 0.00 920.68 229.80" xmlns="http://www.w3.org/2000/svg" xmlns:xlink="http://www.w3.org/1999/xlink">
<g id="graph0" class="graph" transform="scale(1 1) rotate(0) translate(4 225.8)">
<title>pipeline_dag_20230127_202708</title>
<polygon fill="#ffffff" stroke="transparent" points="-4,4 -4,-225.8 916.6805,-225.8 916.6805,4 -4,4"/>
<!-- p0 -->
<g id="node1" class="node">
<title>p0</title>
<ellipse fill="#000000" stroke="#000000" cx="219.6805" cy="-218.2" rx="3.6" ry="3.6"/>
</g>
<!-- p1 -->
<g id="node2" class="node">
<title>p1</title>
<ellipse fill="none" stroke="#000000" cx="219.6805" cy="-145.6" rx="217.9616" ry="18"/>
<text text-anchor="middle" x="219.6805" y="-141.9" font-family="Times,serif" font-size="14.00" fill="#000000">ICGCMUTSIGWORKFLOW:matrixgenerator</text>
</g>
<!-- p0&#45;&gt;p1 -->
<g id="edge1" class="edge">
<title>p0&#45;&gt;p1</title>
<path fill="none" stroke="#000000" d="M219.6805,-214.2967C219.6805,-206.6869 219.6805,-189.2632 219.6805,-173.8684"/>
<polygon fill="#000000" stroke="#000000" points="223.1806,-173.6802 219.6805,-163.6802 216.1806,-173.6802 223.1806,-173.6802"/>
<text text-anchor="middle" x="566.1805" y="-185.4" font-family="Times,serif" font-size="14.00" fill="#000000">/home/alvin.ngwt/icgc&#45;argo&#45;mutational&#45;signatures/testdata/input/snv_mnv_indel.icgc.testset.maf</text>
</g>
<!-- p2 -->
<g id="node3" class="node">
<title>p2</title>
<ellipse fill="none" stroke="#000000" cx="219.6805" cy="-72.6" rx="219.8612" ry="18"/>
<text text-anchor="middle" x="219.6805" y="-68.9" font-family="Times,serif" font-size="14.00" fill="#000000">ICGCMUTSIGWORKFLOW:signaturetoolslib</text>
</g>
<!-- p1&#45;&gt;p2 -->
<g id="edge2" class="edge">
<title>p1&#45;&gt;p2</title>
<path fill="none" stroke="#000000" d="M219.6805,-127.5551C219.6805,-119.4828 219.6805,-109.7764 219.6805,-100.7817"/>
<polygon fill="#000000" stroke="#000000" points="223.1806,-100.6903 219.6805,-90.6904 216.1806,-100.6904 223.1806,-100.6903"/>
</g>
<!-- p3 -->
<g id="node4" class="node">
<title>p3</title>
<ellipse fill="#000000" stroke="#000000" cx="219.6805" cy="-1.8" rx="1.8" ry="1.8"/>
</g>
<!-- p2&#45;&gt;p3 -->
<g id="edge3" class="edge">
<title>p2&#45;&gt;p3</title>
<path fill="none" stroke="#000000" d="M219.6805,-54.3672C219.6805,-41.7838 219.6805,-25.3818 219.6805,-14.2703"/>
<polygon fill="#000000" stroke="#000000" points="223.1806,-13.9527 219.6805,-3.9527 216.1806,-13.9527 223.1806,-13.9527"/>
<text text-anchor="middle" x="243.6805" y="-25.4" font-family="Times,serif" font-size="14.00" fill="#000000">output</text>
</g>
</g>
</svg>
